<svg width="1024" height="1024" viewBox="0 0 1024 1024" fill="none" xmlns="http://www.w3.org/2000/svg">
<path d="M165.536 264.784L864.24 265.008C864.08 277.008 861.344 294.784 860.256 307.456C861.536 307.664 862.816 307.888 864.08 308.128C880.032 311.056 892.432 317.408 901.696 331.136C905.664 337.056 908.464 343.68 909.952 350.656C913.376 366.592 912.176 413.072 908.752 428.832C901.84 460.544 882.848 491.104 857.2 511.088C848.608 517.776 842.24 521.504 833.44 527.36C832.256 533.488 831.056 548.656 830.224 555.696L823.936 606.432L809.632 724.032C805.888 756.304 802.16 794.272 796.928 826.064C793.392 856.832 763.328 887.856 731.888 890.432C714.896 891.824 694.912 890.928 677.6 890.912L559.504 890.896L379.136 890.88L325.84 890.896C300.576 890.992 281.6 893.184 259.648 877.44C246.064 867.808 235.936 854.08 230.768 838.272C227.2 827.68 225.872 811.92 224.464 800.4L218.816 754.56L198.736 589.328C196.24 569.664 194.096 546.896 191.024 527.744C188.288 525.648 183.92 523.152 180.832 521.088C147.712 499.008 123.456 466.912 115.712 427.392C112.208 409.504 110.256 367.984 114.208 350.56C115.952 343.088 119.056 336 123.376 329.68C134.08 313.792 146.96 310.688 164.608 307.264C164.08 295.584 159.808 276.768 160.992 266.048C162.544 264.608 162.912 265.056 165.568 264.8L165.536 264.784ZM623.248 711.76C615.664 703.408 607.104 695.888 599.408 687.664C589.264 676.848 580 672.768 578.368 657.12C573.568 652 569.472 647.968 564.416 643.184C538.768 657.36 518.96 665.552 488.656 656.816C465.776 650.208 446.48 634.704 435.056 613.792C423.84 593.616 421.264 569.76 427.904 547.648C438.912 510.048 471.824 484.88 511.056 484.64C535.552 484.72 556.88 492.688 574.288 510.272C591.152 527.472 600.448 550.704 600.08 574.8C599.904 598.512 592.544 606.464 582.24 625.632C586.16 630.928 591.52 635.2 596.256 639.84C598.976 640.144 604.832 640.672 606.784 642.448C627.808 661.6 647.712 682.384 668.048 702.352C670.512 704.752 671.6 709.136 672.48 712.288C687.952 712.656 699.168 714.784 708.896 701.056C711.76 697.008 711.104 693.92 711.616 689.216C711.904 663.872 711.744 638.16 711.744 612.816L711.808 441.504C699.52 440.288 677.856 440.912 664.8 440.928L578.416 441.024L409.824 441.008C380.576 441.024 348.832 440.32 319.808 441.088C317.456 441.168 314.784 441.008 312.784 442.064C311.952 447.792 312.576 466.816 312.56 473.648L312.464 545.008L312.448 641.696C312.432 658.56 312.144 675.616 312.8 692.464C313.152 701.488 322.736 711.712 331.872 712.112C348.32 712.832 365.056 712.464 381.552 712.432L478.048 712.4L572.496 712.432C585.088 712.448 612.128 713.136 623.248 711.76ZM856.592 339.456C854.96 342.32 852.464 371.056 851.888 376.208C849.216 399.872 846.304 423.52 843.168 447.12C841.744 457.936 838.944 474.256 838.272 484.512C842.864 481.216 847.408 476.448 851.04 472.112C873.344 446.496 881.12 422.016 879.84 387.968C879.104 368.144 885.472 341.36 856.592 339.456ZM504.352 509.472C469.824 513.696 445.2 545.072 449.296 579.616C453.392 614.176 484.656 638.912 519.232 634.96C554 630.976 578.912 599.504 574.784 564.736C570.672 529.984 539.088 505.2 504.352 509.472ZM162.336 340.048C143.248 344.176 144.976 358.816 144.336 373.856C142.56 415.872 146.848 443.552 175.776 475.824C179.248 478.832 181.92 481.232 185.744 483.76C185.552 475.088 183.68 464.272 182.688 455.44L174.432 388.32L170.56 356.944C170.096 352.992 169.28 343.696 168.304 340.304C165.792 339.52 164.912 339.792 162.336 340.048ZM334.672 363.552C306.128 365.2 312.32 398.768 312.464 419.536L514.496 419.6C570.688 419.792 630.448 420.8 686.48 419.792C694.816 419.76 703.552 419.872 711.84 419.504C711.616 356.784 711.824 363.36 651.264 363.376L569.44 363.408C492.608 363.472 413.856 362.544 337.2 363.472C336.352 363.488 335.52 363.52 334.672 363.552Z" fill="#FF9329"/>
<path d="M835.824 136.272C845.744 136.336 856.304 135.872 865.84 138.592C878.816 142.432 889.744 151.28 896.224 163.168C898.432 167.2 902.384 177.392 902.784 181.44C903.664 190.72 904.928 227.616 902.912 234.512C898.208 235.872 865.92 235.36 858.752 235.392L733.664 235.52L192.896 235.536C171.536 235.408 145.12 236.256 124.352 235.12C124.304 234.144 124.272 233.184 124.24 232.208C123.968 224.096 124.336 215.568 124.128 207.488C123.424 187.184 125.024 167.056 139.84 151.472C154.64 135.92 173.056 136.512 192.368 136.528L229.088 136.576L353.968 136.56L670.064 136.528C724.176 136.512 781.984 137.536 835.824 136.272Z" fill="#FF9329"/>
</svg>
