<svg width="1024" height="1024" viewBox="0 0 1024 1024" fill="none" xmlns="http://www.w3.org/2000/svg">
<g clip-path="url(#clip0_16_212)">
<path d="M506.437 112.157C509.434 111.952 515.706 111.742 518.344 112.965C527.116 117.025 536.41 122.328 544.886 126.973L597.837 155.962L775.305 252.032L816.097 274.321C820.379 276.648 838.476 285.542 840 289.086C837.563 291.301 834.49 293.019 831.587 294.595C811.374 305.583 791.778 318.001 771.52 328.866C686.518 284.463 602.686 234.828 517.746 189.652L512.627 187.485C505.517 190.2 491.991 198.051 484.727 202.075L434.87 229.931C375.376 263.118 313.987 298.458 253.936 330L210.51 305.14C203.498 301.129 192.193 295.056 186 290.565C192.371 286.129 208.248 277.856 215.564 273.787L273.023 241.613C331.011 208.566 389.227 175.909 447.666 143.645L483.246 123.985C489.347 120.615 500.234 114.203 506.437 112.157Z" fill="#FF9329"/>
<path d="M232.986 550C234.514 551.304 233.879 576.024 233.874 579.887L233.749 644.32C233.632 681.619 229.132 673.427 260.576 691.571L298.13 713.477L421.563 785.348C446.914 800.173 477.515 817.693 501.757 833.816C501.751 843.674 502.713 906.211 500.851 910.678C500.121 911.221 499.561 911.845 498.624 911.982C493.622 912.7 461.254 891.436 454.13 887.118C426.876 869.698 396.479 851.991 368.504 835.488C327.628 811.323 286.62 787.376 245.48 763.654L192.894 733.412C183.188 727.865 172.733 722.481 163.727 716.029C160.673 713.384 160.214 708.66 160.145 705.042C159.924 693.312 160.02 681.557 160.024 669.845L160.07 590.755C184.129 577.996 209.158 563.433 232.986 550Z" fill="#4E4E4E"/>
<path d="M791.453 566C814.859 578.369 840.176 593.403 863.468 606.56C863.475 630.058 863.613 653.557 863.883 677.056C863.934 685.001 864.009 693.085 863.996 700.905C863.99 707.468 864.405 716.683 857.967 720.431C847.632 726.462 836.913 732.374 826.508 738.299L765.174 773.703C700.268 811.398 635.64 849.555 571.287 888.181C560.367 894.719 549.447 901.276 538.483 907.745C534.365 910.172 524.117 916.435 524.237 906.825C524.538 882.432 523.507 857.644 524.318 833.295C529.467 829.579 540.934 823.116 546.737 819.65L590.381 793.667L731.878 710.277L770.297 687.748C773.145 686.09 788.347 677.469 789.692 675.805C793.584 670.994 791.962 637.378 791.868 631.241C791.465 609.5 791.327 587.747 791.453 566Z" fill="#4E4E4E"/>
<path d="M498.811 445.252C508.313 443.561 518.048 443.583 527.543 445.316C550.946 449.588 571.12 463.918 582.463 484.323C593.8 504.726 595.098 529.027 585.989 550.467C582.134 559.537 576.532 567.804 569.486 574.826C554.573 589.701 534.114 598.055 512.775 598C491.438 597.938 471.031 589.473 456.2 574.517C449.253 567.514 443.733 559.284 439.933 550.276C430.871 528.792 432.246 504.464 443.674 484.078C455.103 463.692 475.364 449.425 498.811 445.252Z" fill="#FF9329"/>
<path d="M858.387 312C861.977 313.23 863.787 315.138 863.88 319.179C864.088 327.983 863.984 336.799 863.88 345.605C863.53 362.978 863.333 380.354 863.278 397.73L863.29 580C850.544 573.499 834.258 563.494 821.548 556.186L792.927 539.612L792 351.51L858.387 312Z" fill="#FF9329"/>
<path d="M164.58 312C166.042 312.038 167.308 311.952 168.666 312.719C180.076 319.164 191.356 326.004 202.589 332.784C212.989 339.061 223.882 345.196 233.973 351.932C234.122 368.334 233.611 384.787 233.499 401.204L232.742 522.448L204.321 538.734L160.029 564L160.122 400.455L160.04 347.131C160.024 337.733 159.883 328.077 160.248 318.685C160.37 315.531 162.392 313.958 164.58 312Z" fill="#FF9329"/>
<path d="M499.614 340.917C497.414 340.191 495.039 339.408 492.932 338.437C480.967 332.976 471.682 323.008 467.131 310.736C457.429 284.574 471.029 256.209 497.487 246.868C509.933 242.476 523.626 243.15 535.572 248.743C547.669 254.49 556.944 264.811 561.324 277.4C565.654 290.085 564.698 303.962 558.678 315.945C552.398 328.215 541.845 336.505 528.823 340.801L528.634 446C519.138 444.234 509.401 444.212 499.899 445.935C499.038 437.258 499.538 418.453 499.532 409.366L499.614 340.917Z" fill="#4E4E4E"/>
<path d="M437.882 554C441.647 563.173 447.116 571.555 454 578.686L374.644 632.356C377.685 661.49 361.638 686.339 331.513 689.701C318.782 691.133 306.009 687.382 296.065 679.29C285.82 670.933 279.384 658.782 278.222 645.6C276.978 632.645 280.999 619.727 289.378 609.774C297.803 599.797 309.9 593.658 322.914 592.76C338.079 591.61 349.184 596.53 360.428 606.206C383.27 589.6 413.954 569.651 437.882 554Z" fill="#4E4E4E"/>
<path d="M586.52 552C609.566 566.479 632.043 582.025 654.899 596.802C658.214 598.941 661.458 601.229 664.848 603.251C675.836 593.85 687.42 589.063 702.247 589.937C715.326 590.75 727.506 596.696 736.041 606.419C744.608 616.068 748.867 628.675 747.853 641.417C746.928 654.123 740.832 665.93 730.934 674.202C720.459 683.02 707.786 686.957 694.029 685.804C681.165 684.706 669.278 678.635 661.008 668.931C651.269 657.527 648.746 645.008 650.191 630.578L650.337 629.183C623.945 611.889 596.139 594.104 570 576.481C577.053 569.425 582.661 561.115 586.52 552Z" fill="#4E4E4E"/>
</g>
<defs>
<clipPath id="clip0_16_212">
<rect width="1024" height="1024" fill="white"/>
</clipPath>
</defs>
</svg>
