<svg width="64" height="64" viewBox="0 0 64 64" fill="none" xmlns="http://www.w3.org/2000/svg">
  <g clip-path="url(#clip0)">
    <path d="M10.346 16.549 54.015 16.563c-.01.75-.181 1.861-.249 2.653.08.013.16.027.239.042.997.183 1.772.58 2.351 1.438.248.37.423.784.516 1.22.214.996.139 3.901-.075 4.886-.432 1.982-1.619 3.892-3.222 5.141-.537.418-.935.651-1.485 1.017-.074.383-.149 1.331-.201 1.771l-.393 3.171-.894 7.35c-.234 2.017-.467 4.39-.794 6.377-.221 1.923-2.1 3.862-4.065 4.023-1.062.087-2.311.031-3.393.03l-7.381-.001-11.273-.001-3.331.001c-1.579.006-2.765.143-4.137-.841-.849-.602-1.482-1.46-1.805-2.448-.223-.662-.306-1.647-.394-2.367l-.353-2.865-1.255-10.327c-.156-1.229-.29-2.652-.482-3.849-.171-.131-.444-.287-.637-.416-2.07-1.38-3.586-3.386-4.07-5.856-.219-1.118-.341-3.713-.094-4.802.109-.467.303-.91.573-1.305.669-.993 1.474-1.187 2.577-1.401-.033-.73-.3-1.906-.226-2.576.097-.09.12-.062.286-.078ZM38.953 44.485c-.474-.522-1.009-.992-1.49-1.506-.634-.676-1.213-.931-1.315-1.909-.3-.32-.556-.572-.872-.871-1.603.886-2.841 1.398-4.735.852-1.43-.413-2.636-1.382-3.35-2.689-.701-1.261-.862-2.752-.447-4.134.688-2.35 2.745-3.923 5.197-3.938 1.531.005 2.864.503 3.952 1.602 1.054 1.075 1.635 2.527 1.612 4.033-.011 1.482-.471 1.979-1.115 3.177.245.331.58.598.876.888.17.019.536.052.658.163 1.314 1.197 2.558 2.496 3.829 3.744.154.15.222.424.277.621.967.023 1.668.156 2.276-.702.179-.253.138-.446.17-.74.018-1.584.008-3.191.008-4.775l.004-10.707c-.768-.076-2.122-.037-2.938-.036l-5.399.006-10.537-.001c-1.828.001-3.812-.043-5.626.005-.147.005-.314-.005-.439.061-.052.358-.013 1.547-.014 1.974l-.006 4.46-.001 6.043c-.001 1.054-.019 2.12.022 3.173.022.564.621 1.203 1.192 1.228 1.028.045 2.074.022 3.105.02l6.031-.002 5.903.002c.787.001 2.478.044 3.173-.042ZM53.537 21.216c-.102.179-.258 1.975-.294 2.297-.167 1.479-.349 2.957-.545 4.432-.089.676-.264 1.696-.306 2.337.287-.206.571-.504.798-.775 1.394-1.601 1.88-3.131 1.8-5.259-.046-1.239.352-2.913-1.453-3.032ZM31.522 31.842c-2.158.264-3.697 2.225-3.441 4.384.256 2.16 2.21 3.706 4.371 3.459 2.173-.249 3.73-2.216 3.472-4.389-.257-2.172-2.231-3.721-4.402-3.454ZM10.146 21.253c-1.193.258-1.085 1.173-1.125 2.113-.111 2.626.157 4.356 1.965 6.373.217.188.384.338.623.496-.012-.542-.129-1.218-.191-1.77l-.516-4.195-.242-1.961c-.029-.247-.08-.828-.141-1.04-.157-.049-.212-.032-.373-.016ZM20.917 22.722c-1.784.103-1.397 2.201-1.388 3.499l12.627.004c3.512.012 7.247.075 10.749.012.521-.002 1.067.005 1.585-.018-.014-3.92-.001-3.509-3.786-3.508l-5.114.002c-4.802.004-9.724-.054-14.515.004-.053.001-.105.003-.158.005Z" fill="#FF9329"/>
    <path d="M52.239 8.517c.62.004 1.28-.025 1.876.145.811.24 1.494.793 1.899 1.536.138.252.385.889.41 1.142.055.58.134 2.886.008 3.317-.294.085-2.312.053-2.76.055l-7.818.008-33.798.001c-1.335-.008-2.986.045-4.284-.026-.003-.061-.005-.121-.007-.182-.017-.507.006-1.04-.007-1.545-.044-1.269.056-2.527.982-3.501.925-.972 2.076-.935 3.283-.934l2.295.003 7.805-.001 19.756-.002c3.382-.001 6.995.063 10.36-.016Z" fill="#FF9329"/>
  </g>
  <defs>
    <clipPath id="clip0"><rect width="64" height="64" fill="white"/></clipPath>
  </defs>
</svg>
