<svg width="64" height="64" viewBox="0 0 64 64" fill="none" xmlns="http://www.w3.org/2000/svg">
<g clip-path="url(#clip0_16_189)">
<path d="M31.6523 7.00981C31.8396 6.99698 32.2316 6.98389 32.3965 7.06034C32.9447 7.31405 33.5256 7.64552 34.0554 7.93581L37.3648 9.74765L48.4566 15.752L51.006 17.145C51.2737 17.2905 52.4048 17.8464 52.5 18.0679C52.3477 18.2063 52.1556 18.3137 51.9742 18.4122C50.7109 19.0989 49.4861 19.8751 48.22 20.5541C42.9073 17.7789 37.6679 14.6768 32.3591 11.8533L32.0392 11.7178C31.5948 11.8875 30.7494 12.3782 30.2955 12.6297L27.1794 14.3707C23.461 16.4448 19.6242 18.6537 15.871 20.625L13.1569 19.0713C12.7186 18.8206 12.0121 18.441 11.625 18.1603C12.0232 17.883 13.0155 17.366 13.4727 17.1117L17.0639 15.1008C20.6882 13.0353 24.3267 10.9943 27.9791 8.97781L30.2029 7.74906C30.5842 7.53845 31.2646 7.13768 31.6523 7.00981Z" fill="#FF9329"/>
<path d="M14.5616 34.375C14.6572 34.4565 14.6174 36.0015 14.6171 36.2429L14.6093 40.27C14.602 42.6012 14.3208 42.0892 16.286 43.2232L18.6331 44.5923L26.3477 49.0843C27.9321 50.0108 29.8447 51.1058 31.3598 52.1135C31.3594 52.7296 31.4196 56.6382 31.3032 56.9174C31.2576 56.9513 31.2226 56.9903 31.164 56.9989C30.8514 57.0437 28.8284 55.7148 28.3831 55.4449C26.6797 54.3561 24.78 53.2494 23.0315 52.218C20.4767 50.7077 17.9137 49.211 15.3425 47.7284L12.0559 45.8382C11.4493 45.4916 10.7958 45.155 10.233 44.7518C10.042 44.5865 10.0134 44.2913 10.0091 44.0651C9.99525 43.332 10.0013 42.5973 10.0015 41.8653L10.0044 36.9222C11.508 36.1247 13.0724 35.2146 14.5616 34.375Z" fill="#4E4E4E"/>
<path d="M49.4658 35.375C50.9287 36.148 52.511 37.0877 53.9668 37.91C53.9672 39.3787 53.9758 40.8473 53.9927 42.316C53.9958 42.8126 54.0006 43.3178 53.9998 43.8066C53.9994 44.2167 54.0253 44.7927 53.623 45.0269C52.977 45.4039 52.307 45.7734 51.6568 46.1437L47.8234 48.3565C43.7668 50.7124 39.7275 53.0972 35.7055 55.5113C35.0229 55.92 34.3404 56.3297 33.6552 56.7341C33.3978 56.8858 32.7573 57.2772 32.7648 56.6766C32.7836 55.152 32.7192 53.6028 32.7699 52.0809C33.0917 51.8487 33.8084 51.4447 34.1711 51.2281L36.8988 49.6042L45.7424 44.3923L48.1436 42.9842C48.3216 42.8806 49.2717 42.3418 49.3558 42.2378C49.599 41.9371 49.4976 39.8361 49.4917 39.4526C49.4666 38.0938 49.4579 36.7342 49.4658 35.375Z" fill="#4E4E4E"/>
<path d="M31.1757 27.8282C31.7695 27.7226 32.378 27.7239 32.9715 27.8323C34.4341 28.0992 35.695 28.9949 36.4039 30.2702C37.1125 31.5454 37.1936 33.0642 36.6243 34.4042C36.3834 34.9711 36.0332 35.4878 35.5929 35.9266C34.6608 36.8563 33.3821 37.3785 32.0484 37.375C30.7149 37.3711 29.4394 36.8421 28.5125 35.9073C28.0783 35.4697 27.7333 34.9552 27.4958 34.3922C26.9294 33.0495 27.0154 31.529 27.7296 30.2549C28.4439 28.9807 29.7102 28.089 31.1757 27.8282Z" fill="#FF9329"/>
<path d="M53.6492 19.5C53.8736 19.5769 53.9867 19.6961 53.9925 19.9487C54.0055 20.4989 53.999 21.05 53.9925 21.6003C53.9706 22.6861 53.9583 23.7721 53.9549 24.8582L53.9557 36.25C53.159 35.8437 52.1411 35.2184 51.3468 34.7616L49.5579 33.7257L49.5 21.9694L53.6492 19.5Z" fill="#FF9329"/>
<path d="M10.2863 19.5C10.3776 19.5023 10.4568 19.497 10.5416 19.5449C11.2547 19.9478 11.9597 20.3752 12.6618 20.799C13.3118 21.1913 13.9926 21.5747 14.6233 21.9958C14.6326 23.0209 14.6007 24.0492 14.5937 25.0752L14.5464 32.653L12.77 33.6708L10.0018 35.25L10.0076 25.0284L10.0025 21.6957C10.0015 21.1083 9.99272 20.5048 10.0155 19.9178C10.0231 19.7207 10.1495 19.6224 10.2863 19.5Z" fill="#FF9329"/>
<path d="M31.2259 21.3073C31.0884 21.2619 30.94 21.213 30.8082 21.1523C30.0604 20.811 29.4801 20.188 29.1957 19.421C28.5893 17.7859 29.4393 16.013 31.0929 15.4293C31.8708 15.1547 32.7266 15.1969 33.4732 15.5465C34.2293 15.9057 34.809 16.5507 35.0828 17.3375C35.3534 18.1303 35.2937 18.9976 34.9174 19.7466C34.5249 20.5135 33.8653 21.0316 33.0515 21.3001L33.0396 27.875C32.4461 27.7646 31.8376 27.7632 31.2437 27.8709C31.1899 27.3286 31.2212 26.1533 31.2208 25.5854L31.2259 21.3073Z" fill="#4E4E4E"/>
<path d="M27.3676 34.625C27.6029 35.1983 27.9448 35.7222 28.375 36.1679L23.4152 39.5222C23.6053 41.3431 22.6024 42.8962 20.7196 43.1063C19.9239 43.1958 19.1256 42.9614 18.504 42.4556C17.8638 41.9333 17.4615 41.1739 17.3889 40.35C17.3111 39.5403 17.5625 38.7329 18.0861 38.1109C18.6127 37.4873 19.3687 37.1037 20.1821 37.0475C21.13 36.9756 21.824 37.2831 22.5268 37.8879C23.9544 36.85 25.8721 35.6032 27.3676 34.625Z" fill="#4E4E4E"/>
<path d="M36.6575 34.5C38.0979 35.4049 39.5027 36.3766 40.9312 37.3001C41.1383 37.4338 41.3411 37.5768 41.553 37.7032C42.2397 37.1156 42.9637 36.8164 43.8905 36.8711C44.7079 36.9219 45.4691 37.2935 46.0026 37.9012C46.538 38.5043 46.8042 39.2922 46.7408 40.0886C46.683 40.8827 46.302 41.6206 45.6834 42.1376C45.0287 42.6887 44.2366 42.9348 43.3768 42.8627C42.5728 42.7941 41.8298 42.4147 41.313 41.8082C40.7043 41.0955 40.5467 40.313 40.637 39.4111L40.6461 39.3239C38.9965 38.243 37.2587 37.1315 35.625 36.0301C36.0658 35.589 36.4163 35.0697 36.6575 34.5Z" fill="#4E4E4E"/>
</g>
<defs>
<clipPath id="clip0_16_189">
<rect width="64" height="64" fill="white"/>
</clipPath>
</defs>
</svg>
